<?xml version="1.0" encoding="utf-8" standalone="no"?>
<!DOCTYPE svg PUBLIC "-//W3C//DTD SVG 1.1//EN"
  "http://www.w3.org/Graphics/SVG/1.1/DTD/svg11.dtd">
<!-- Created with matplotlib (http://matplotlib.org/) -->
<svg height="589.68pt" version="1.1" viewBox="0 0 1036.8 589.68" width="1036.8pt" xmlns="http://www.w3.org/2000/svg" xmlns:xlink="http://www.w3.org/1999/xlink">
 <defs>
  <style type="text/css">
*{stroke-linecap:butt;stroke-linejoin:round;}
  </style>
 </defs>
 <g id="figure_1">
  <g id="patch_1">
   <path d="M 0 589.68 
L 1036.8 589.68 
L 1036.8 0 
L 0 0 
z
" style="fill:#ffffff;"/>
  </g>
  <g id="axes_1">
   <g id="patch_2">
    <path d="M 129.6 524.8152 
L 494.836364 524.8152 
L 494.836364 70.7616 
L 129.6 70.7616 
z
" style="fill:#ffffff;"/>
   </g>
   <g id="PathCollection_1">
    <defs>
     <path d="M 0 3 
C 0.795609 3 1.55874 2.683901 2.12132 2.12132 
C 2.683901 1.55874 3 0.795609 3 0 
C 3 -0.795609 2.683901 -1.55874 2.12132 -2.12132 
C 1.55874 -2.683901 0.795609 -3 0 -3 
C -0.795609 -3 -1.55874 -2.683901 -2.12132 -2.12132 
C -2.683901 -1.55874 -3 -0.795609 -3 0 
C -3 0.795609 -2.683901 1.55874 -2.12132 2.12132 
C -1.55874 2.683901 -0.795609 3 0 3 
z
" id="m3ec38b2b88" style="stroke:#008000;"/>
    </defs>
    <g clip-path="url(#p4248b9ab84)">
     <use style="fill:#008000;stroke:#008000;" x="359.612539" xlink:href="#m3ec38b2b88" y="445.69535"/>
     <use style="fill:#008000;stroke:#008000;" x="369.113343" xlink:href="#m3ec38b2b88" y="483.964785"/>
     <use style="fill:#008000;stroke:#008000;" x="464.760313" xlink:href="#m3ec38b2b88" y="337.374296"/>
     <use style="fill:#008000;stroke:#008000;" x="436.959265" xlink:href="#m3ec38b2b88" y="392.82485"/>
     <use style="fill:#008000;stroke:#008000;" x="444.811389" xlink:href="#m3ec38b2b88" y="392.589591"/>
     <use style="fill:#008000;stroke:#008000;" x="417.148456" xlink:href="#m3ec38b2b88" y="435.819176"/>
     <use style="fill:#008000;stroke:#008000;" x="308.117624" xlink:href="#m3ec38b2b88" y="310.055623"/>
     <use style="fill:#008000;stroke:#008000;" x="351.578025" xlink:href="#m3ec38b2b88" y="406.36234"/>
     <use style="fill:#008000;stroke:#008000;" x="358.866166" xlink:href="#m3ec38b2b88" y="442.155281"/>
     <use style="fill:#008000;stroke:#008000;" x="280.174" xlink:href="#m3ec38b2b88" y="203.225781"/>
     <use style="fill:#008000;stroke:#008000;" x="433.857039" xlink:href="#m3ec38b2b88" y="436.438673"/>
     <use style="fill:#008000;stroke:#008000;" x="347.568984" xlink:href="#m3ec38b2b88" y="404.421102"/>
     <use style="fill:#008000;stroke:#008000;" x="185.129089" xlink:href="#m3ec38b2b88" y="190.442013"/>
     <use style="fill:#008000;stroke:#008000;" x="232.902083" xlink:href="#m3ec38b2b88" y="105.729418"/>
     <use style="fill:#008000;stroke:#008000;" x="162.075804" xlink:href="#m3ec38b2b88" y="248.506275"/>
     <use style="fill:#008000;stroke:#008000;" x="312.795764" xlink:href="#m3ec38b2b88" y="317.230675"/>
     <use style="fill:#008000;stroke:#008000;" x="350.429446" xlink:href="#m3ec38b2b88" y="411.547401"/>
     <use style="fill:#008000;stroke:#008000;" x="252.750434" xlink:href="#m3ec38b2b88" y="173.777132"/>
     <use style="fill:#008000;stroke:#008000;" x="260.684928" xlink:href="#m3ec38b2b88" y="127.380294"/>
     <use style="fill:#008000;stroke:#008000;" x="215.269633" xlink:href="#m3ec38b2b88" y="149.822837"/>
     <use style="fill:#008000;stroke:#008000;" x="473.497477" xlink:href="#m3ec38b2b88" y="332.283712"/>
     <use style="fill:#008000;stroke:#008000;" x="379.358173" xlink:href="#m3ec38b2b88" y="488.35759"/>
     <use style="fill:#008000;stroke:#008000;" x="183.687503" xlink:href="#m3ec38b2b88" y="166.209334"/>
     <use style="fill:#008000;stroke:#008000;" x="446.132787" xlink:href="#m3ec38b2b88" y="406.554257"/>
     <use style="fill:#008000;stroke:#008000;" x="150.938887" xlink:href="#m3ec38b2b88" y="295.248797"/>
     <use style="fill:#008000;stroke:#008000;" x="446.599115" xlink:href="#m3ec38b2b88" y="373.165222"/>
     <use style="fill:#008000;stroke:#008000;" x="440.912087" xlink:href="#m3ec38b2b88" y="396.959944"/>
     <use style="fill:#008000;stroke:#008000;" x="386.252899" xlink:href="#m3ec38b2b88" y="477.264743"/>
     <use style="fill:#008000;stroke:#008000;" x="252.549261" xlink:href="#m3ec38b2b88" y="103.615473"/>
     <use style="fill:#008000;stroke:#008000;" x="384.2444" xlink:href="#m3ec38b2b88" y="481.836747"/>
     <use style="fill:#008000;stroke:#008000;" x="358.161016" xlink:href="#m3ec38b2b88" y="432.263717"/>
     <use style="fill:#008000;stroke:#008000;" x="214.518051" xlink:href="#m3ec38b2b88" y="132.563753"/>
     <use style="fill:#008000;stroke:#008000;" x="253.392007" xlink:href="#m3ec38b2b88" y="94.835581"/>
     <use style="fill:#008000;stroke:#008000;" x="188.575948" xlink:href="#m3ec38b2b88" y="183.38681"/>
     <use style="fill:#008000;stroke:#008000;" x="179.510548" xlink:href="#m3ec38b2b88" y="190.807802"/>
     <use style="fill:#008000;stroke:#008000;" x="198.756928" xlink:href="#m3ec38b2b88" y="151.072256"/>
     <use style="fill:#008000;stroke:#008000;" x="296.120951" xlink:href="#m3ec38b2b88" y="244.502113"/>
     <use style="fill:#008000;stroke:#008000;" x="197.407958" xlink:href="#m3ec38b2b88" y="152.488801"/>
     <use style="fill:#008000;stroke:#008000;" x="457.369967" xlink:href="#m3ec38b2b88" y="327.450709"/>
     <use style="fill:#008000;stroke:#008000;" x="183.734842" xlink:href="#m3ec38b2b88" y="192.045176"/>
     <use style="fill:#008000;stroke:#008000;" x="405.893102" xlink:href="#m3ec38b2b88" y="500.741219"/>
     <use style="fill:#008000;stroke:#008000;" x="434.838457" xlink:href="#m3ec38b2b88" y="422.245887"/>
     <use style="fill:#008000;stroke:#008000;" x="167.03668" xlink:href="#m3ec38b2b88" y="217.99472"/>
     <use style="fill:#008000;stroke:#008000;" x="294.481274" xlink:href="#m3ec38b2b88" y="222.311466"/>
     <use style="fill:#008000;stroke:#008000;" x="443.047371" xlink:href="#m3ec38b2b88" y="376.270579"/>
     <use style="fill:#008000;stroke:#008000;" x="268.003052" xlink:href="#m3ec38b2b88" y="151.97044"/>
     <use style="fill:#008000;stroke:#008000;" x="270.741733" xlink:href="#m3ec38b2b88" y="155.061827"/>
     <use style="fill:#008000;stroke:#008000;" x="465.059541" xlink:href="#m3ec38b2b88" y="322.896551"/>
     <use style="fill:#008000;stroke:#008000;" x="318.805244" xlink:href="#m3ec38b2b88" y="333.230493"/>
     <use style="fill:#008000;stroke:#008000;" x="155.899136" xlink:href="#m3ec38b2b88" y="302.630893"/>
    </g>
   </g>
   <g id="matplotlib.axis_1">
    <g id="xtick_1">
     <g id="line2d_1">
      <defs>
       <path d="M 0 0 
L 0 3.5 
" id="m8af7282777" style="stroke:#000000;stroke-width:0.8;"/>
      </defs>
      <g>
       <use style="stroke:#000000;stroke-width:0.8;" x="150.59609" xlink:href="#m8af7282777" y="524.8152"/>
      </g>
     </g>
     <g id="text_1">
      <!-- 0.0 -->
      <defs>
       <path d="M 31.78125 66.40625 
Q 24.171875 66.40625 20.328125 58.90625 
Q 16.5 51.421875 16.5 36.375 
Q 16.5 21.390625 20.328125 13.890625 
Q 24.171875 6.390625 31.78125 6.390625 
Q 39.453125 6.390625 43.28125 13.890625 
Q 47.125 21.390625 47.125 36.375 
Q 47.125 51.421875 43.28125 58.90625 
Q 39.453125 66.40625 31.78125 66.40625 
z
M 31.78125 74.21875 
Q 44.046875 74.21875 50.515625 64.515625 
Q 56.984375 54.828125 56.984375 36.375 
Q 56.984375 17.96875 50.515625 8.265625 
Q 44.046875 -1.421875 31.78125 -1.421875 
Q 19.53125 -1.421875 13.0625 8.265625 
Q 6.59375 17.96875 6.59375 36.375 
Q 6.59375 54.828125 13.0625 64.515625 
Q 19.53125 74.21875 31.78125 74.21875 
z
" id="DejaVuSans-30"/>
       <path d="M 10.6875 12.40625 
L 21 12.40625 
L 21 0 
L 10.6875 0 
z
" id="DejaVuSans-2e"/>
      </defs>
      <g transform="translate(142.644528 539.413637)scale(0.1 -0.1)">
       <use xlink:href="#DejaVuSans-30"/>
       <use x="63.623047" xlink:href="#DejaVuSans-2e"/>
       <use x="95.410156" xlink:href="#DejaVuSans-30"/>
      </g>
     </g>
    </g>
    <g id="xtick_2">
     <g id="line2d_2">
      <g>
       <use style="stroke:#000000;stroke-width:0.8;" x="215.325241" xlink:href="#m8af7282777" y="524.8152"/>
      </g>
     </g>
     <g id="text_2">
      <!-- 0.2 -->
      <defs>
       <path d="M 19.1875 8.296875 
L 53.609375 8.296875 
L 53.609375 0 
L 7.328125 0 
L 7.328125 8.296875 
Q 12.9375 14.109375 22.625 23.890625 
Q 32.328125 33.6875 34.8125 36.53125 
Q 39.546875 41.84375 41.421875 45.53125 
Q 43.3125 49.21875 43.3125 52.78125 
Q 43.3125 58.59375 39.234375 62.25 
Q 35.15625 65.921875 28.609375 65.921875 
Q 23.96875 65.921875 18.8125 64.3125 
Q 13.671875 62.703125 7.8125 59.421875 
L 7.8125 69.390625 
Q 13.765625 71.78125 18.9375 73 
Q 24.125 74.21875 28.421875 74.21875 
Q 39.75 74.21875 46.484375 68.546875 
Q 53.21875 62.890625 53.21875 53.421875 
Q 53.21875 48.921875 51.53125 44.890625 
Q 49.859375 40.875 45.40625 35.40625 
Q 44.1875 33.984375 37.640625 27.21875 
Q 31.109375 20.453125 19.1875 8.296875 
z
" id="DejaVuSans-32"/>
      </defs>
      <g transform="translate(207.373678 539.413637)scale(0.1 -0.1)">
       <use xlink:href="#DejaVuSans-30"/>
       <use x="63.623047" xlink:href="#DejaVuSans-2e"/>
       <use x="95.410156" xlink:href="#DejaVuSans-32"/>
      </g>
     </g>
    </g>
    <g id="xtick_3">
     <g id="line2d_3">
      <g>
       <use style="stroke:#000000;stroke-width:0.8;" x="280.054391" xlink:href="#m8af7282777" y="524.8152"/>
      </g>
     </g>
     <g id="text_3">
      <!-- 0.4 -->
      <defs>
       <path d="M 37.796875 64.3125 
L 12.890625 25.390625 
L 37.796875 25.390625 
z
M 35.203125 72.90625 
L 47.609375 72.90625 
L 47.609375 25.390625 
L 58.015625 25.390625 
L 58.015625 17.1875 
L 47.609375 17.1875 
L 47.609375 0 
L 37.796875 0 
L 37.796875 17.1875 
L 4.890625 17.1875 
L 4.890625 26.703125 
z
" id="DejaVuSans-34"/>
      </defs>
      <g transform="translate(272.102829 539.413637)scale(0.1 -0.1)">
       <use xlink:href="#DejaVuSans-30"/>
       <use x="63.623047" xlink:href="#DejaVuSans-2e"/>
       <use x="95.410156" xlink:href="#DejaVuSans-34"/>
      </g>
     </g>
    </g>
    <g id="xtick_4">
     <g id="line2d_4">
      <g>
       <use style="stroke:#000000;stroke-width:0.8;" x="344.783542" xlink:href="#m8af7282777" y="524.8152"/>
      </g>
     </g>
     <g id="text_4">
      <!-- 0.6 -->
      <defs>
       <path d="M 33.015625 40.375 
Q 26.375 40.375 22.484375 35.828125 
Q 18.609375 31.296875 18.609375 23.390625 
Q 18.609375 15.53125 22.484375 10.953125 
Q 26.375 6.390625 33.015625 6.390625 
Q 39.65625 6.390625 43.53125 10.953125 
Q 47.40625 15.53125 47.40625 23.390625 
Q 47.40625 31.296875 43.53125 35.828125 
Q 39.65625 40.375 33.015625 40.375 
z
M 52.59375 71.296875 
L 52.59375 62.3125 
Q 48.875 64.0625 45.09375 64.984375 
Q 41.3125 65.921875 37.59375 65.921875 
Q 27.828125 65.921875 22.671875 59.328125 
Q 17.53125 52.734375 16.796875 39.40625 
Q 19.671875 43.65625 24.015625 45.921875 
Q 28.375 48.1875 33.59375 48.1875 
Q 44.578125 48.1875 50.953125 41.515625 
Q 57.328125 34.859375 57.328125 23.390625 
Q 57.328125 12.15625 50.6875 5.359375 
Q 44.046875 -1.421875 33.015625 -1.421875 
Q 20.359375 -1.421875 13.671875 8.265625 
Q 6.984375 17.96875 6.984375 36.375 
Q 6.984375 53.65625 15.1875 63.9375 
Q 23.390625 74.21875 37.203125 74.21875 
Q 40.921875 74.21875 44.703125 73.484375 
Q 48.484375 72.75 52.59375 71.296875 
z
" id="DejaVuSans-36"/>
      </defs>
      <g transform="translate(336.83198 539.413637)scale(0.1 -0.1)">
       <use xlink:href="#DejaVuSans-30"/>
       <use x="63.623047" xlink:href="#DejaVuSans-2e"/>
       <use x="95.410156" xlink:href="#DejaVuSans-36"/>
      </g>
     </g>
    </g>
    <g id="xtick_5">
     <g id="line2d_5">
      <g>
       <use style="stroke:#000000;stroke-width:0.8;" x="409.512693" xlink:href="#m8af7282777" y="524.8152"/>
      </g>
     </g>
     <g id="text_5">
      <!-- 0.8 -->
      <defs>
       <path d="M 31.78125 34.625 
Q 24.75 34.625 20.71875 30.859375 
Q 16.703125 27.09375 16.703125 20.515625 
Q 16.703125 13.921875 20.71875 10.15625 
Q 24.75 6.390625 31.78125 6.390625 
Q 38.8125 6.390625 42.859375 10.171875 
Q 46.921875 13.96875 46.921875 20.515625 
Q 46.921875 27.09375 42.890625 30.859375 
Q 38.875 34.625 31.78125 34.625 
z
M 21.921875 38.8125 
Q 15.578125 40.375 12.03125 44.71875 
Q 8.5 49.078125 8.5 55.328125 
Q 8.5 64.0625 14.71875 69.140625 
Q 20.953125 74.21875 31.78125 74.21875 
Q 42.671875 74.21875 48.875 69.140625 
Q 55.078125 64.0625 55.078125 55.328125 
Q 55.078125 49.078125 51.53125 44.71875 
Q 48 40.375 41.703125 38.8125 
Q 48.828125 37.15625 52.796875 32.3125 
Q 56.78125 27.484375 56.78125 20.515625 
Q 56.78125 9.90625 50.3125 4.234375 
Q 43.84375 -1.421875 31.78125 -1.421875 
Q 19.734375 -1.421875 13.25 4.234375 
Q 6.78125 9.90625 6.78125 20.515625 
Q 6.78125 27.484375 10.78125 32.3125 
Q 14.796875 37.15625 21.921875 38.8125 
z
M 18.3125 54.390625 
Q 18.3125 48.734375 21.84375 45.5625 
Q 25.390625 42.390625 31.78125 42.390625 
Q 38.140625 42.390625 41.71875 45.5625 
Q 45.3125 48.734375 45.3125 54.390625 
Q 45.3125 60.0625 41.71875 63.234375 
Q 38.140625 66.40625 31.78125 66.40625 
Q 25.390625 66.40625 21.84375 63.234375 
Q 18.3125 60.0625 18.3125 54.390625 
z
" id="DejaVuSans-38"/>
      </defs>
      <g transform="translate(401.56113 539.413637)scale(0.1 -0.1)">
       <use xlink:href="#DejaVuSans-30"/>
       <use x="63.623047" xlink:href="#DejaVuSans-2e"/>
       <use x="95.410156" xlink:href="#DejaVuSans-38"/>
      </g>
     </g>
    </g>
    <g id="xtick_6">
     <g id="line2d_6">
      <g>
       <use style="stroke:#000000;stroke-width:0.8;" x="474.241843" xlink:href="#m8af7282777" y="524.8152"/>
      </g>
     </g>
     <g id="text_6">
      <!-- 1.0 -->
      <defs>
       <path d="M 12.40625 8.296875 
L 28.515625 8.296875 
L 28.515625 63.921875 
L 10.984375 60.40625 
L 10.984375 69.390625 
L 28.421875 72.90625 
L 38.28125 72.90625 
L 38.28125 8.296875 
L 54.390625 8.296875 
L 54.390625 0 
L 12.40625 0 
z
" id="DejaVuSans-31"/>
      </defs>
      <g transform="translate(466.290281 539.413637)scale(0.1 -0.1)">
       <use xlink:href="#DejaVuSans-31"/>
       <use x="63.623047" xlink:href="#DejaVuSans-2e"/>
       <use x="95.410156" xlink:href="#DejaVuSans-30"/>
      </g>
     </g>
    </g>
    <g id="text_7">
     <!-- x -->
     <defs>
      <path d="M 54.890625 54.6875 
L 35.109375 28.078125 
L 55.90625 0 
L 45.3125 0 
L 29.390625 21.484375 
L 13.484375 0 
L 2.875 0 
L 24.125 28.609375 
L 4.6875 54.6875 
L 15.28125 54.6875 
L 29.78125 35.203125 
L 44.28125 54.6875 
z
" id="DejaVuSans-78"/>
     </defs>
     <g transform="translate(309.258807 553.091762)scale(0.1 -0.1)">
      <use xlink:href="#DejaVuSans-78"/>
     </g>
    </g>
   </g>
   <g id="matplotlib.axis_2">
    <g id="ytick_1">
     <g id="line2d_7">
      <defs>
       <path d="M 0 0 
L -3.5 0 
" id="maab97eb05a" style="stroke:#000000;stroke-width:0.8;"/>
      </defs>
      <g>
       <use style="stroke:#000000;stroke-width:0.8;" x="129.6" xlink:href="#maab97eb05a" y="486.194298"/>
      </g>
     </g>
     <g id="text_8">
      <!-- −1.0 -->
      <defs>
       <path d="M 10.59375 35.5 
L 73.1875 35.5 
L 73.1875 27.203125 
L 10.59375 27.203125 
z
" id="DejaVuSans-2212"/>
      </defs>
      <g transform="translate(98.317187 489.993517)scale(0.1 -0.1)">
       <use xlink:href="#DejaVuSans-2212"/>
       <use x="83.789062" xlink:href="#DejaVuSans-31"/>
       <use x="147.412109" xlink:href="#DejaVuSans-2e"/>
       <use x="179.199219" xlink:href="#DejaVuSans-30"/>
      </g>
     </g>
    </g>
    <g id="ytick_2">
     <g id="line2d_8">
      <g>
       <use style="stroke:#000000;stroke-width:0.8;" x="129.6" xlink:href="#maab97eb05a" y="392.705966"/>
      </g>
     </g>
     <g id="text_9">
      <!-- −0.5 -->
      <defs>
       <path d="M 10.796875 72.90625 
L 49.515625 72.90625 
L 49.515625 64.59375 
L 19.828125 64.59375 
L 19.828125 46.734375 
Q 21.96875 47.46875 24.109375 47.828125 
Q 26.265625 48.1875 28.421875 48.1875 
Q 40.625 48.1875 47.75 41.5 
Q 54.890625 34.8125 54.890625 23.390625 
Q 54.890625 11.625 47.5625 5.09375 
Q 40.234375 -1.421875 26.90625 -1.421875 
Q 22.3125 -1.421875 17.546875 -0.640625 
Q 12.796875 0.140625 7.71875 1.703125 
L 7.71875 11.625 
Q 12.109375 9.234375 16.796875 8.0625 
Q 21.484375 6.890625 26.703125 6.890625 
Q 35.15625 6.890625 40.078125 11.328125 
Q 45.015625 15.765625 45.015625 23.390625 
Q 45.015625 31 40.078125 35.4375 
Q 35.15625 39.890625 26.703125 39.890625 
Q 22.75 39.890625 18.8125 39.015625 
Q 14.890625 38.140625 10.796875 36.28125 
z
" id="DejaVuSans-35"/>
      </defs>
      <g transform="translate(98.317187 396.505185)scale(0.1 -0.1)">
       <use xlink:href="#DejaVuSans-2212"/>
       <use x="83.789062" xlink:href="#DejaVuSans-30"/>
       <use x="147.412109" xlink:href="#DejaVuSans-2e"/>
       <use x="179.199219" xlink:href="#DejaVuSans-35"/>
      </g>
     </g>
    </g>
    <g id="ytick_3">
     <g id="line2d_9">
      <g>
       <use style="stroke:#000000;stroke-width:0.8;" x="129.6" xlink:href="#maab97eb05a" y="299.217634"/>
      </g>
     </g>
     <g id="text_10">
      <!-- 0.0 -->
      <g transform="translate(106.696875 303.016853)scale(0.1 -0.1)">
       <use xlink:href="#DejaVuSans-30"/>
       <use x="63.623047" xlink:href="#DejaVuSans-2e"/>
       <use x="95.410156" xlink:href="#DejaVuSans-30"/>
      </g>
     </g>
    </g>
    <g id="ytick_4">
     <g id="line2d_10">
      <g>
       <use style="stroke:#000000;stroke-width:0.8;" x="129.6" xlink:href="#maab97eb05a" y="205.729302"/>
      </g>
     </g>
     <g id="text_11">
      <!-- 0.5 -->
      <g transform="translate(106.696875 209.528521)scale(0.1 -0.1)">
       <use xlink:href="#DejaVuSans-30"/>
       <use x="63.623047" xlink:href="#DejaVuSans-2e"/>
       <use x="95.410156" xlink:href="#DejaVuSans-35"/>
      </g>
     </g>
    </g>
    <g id="ytick_5">
     <g id="line2d_11">
      <g>
       <use style="stroke:#000000;stroke-width:0.8;" x="129.6" xlink:href="#maab97eb05a" y="112.24097"/>
      </g>
     </g>
     <g id="text_12">
      <!-- 1.0 -->
      <g transform="translate(106.696875 116.040189)scale(0.1 -0.1)">
       <use xlink:href="#DejaVuSans-31"/>
       <use x="63.623047" xlink:href="#DejaVuSans-2e"/>
       <use x="95.410156" xlink:href="#DejaVuSans-30"/>
      </g>
     </g>
    </g>
    <g id="text_13">
     <!-- y -->
     <defs>
      <path d="M 32.171875 -5.078125 
Q 28.375 -14.84375 24.75 -17.8125 
Q 21.140625 -20.796875 15.09375 -20.796875 
L 7.90625 -20.796875 
L 7.90625 -13.28125 
L 13.1875 -13.28125 
Q 16.890625 -13.28125 18.9375 -11.515625 
Q 21 -9.765625 23.484375 -3.21875 
L 25.09375 0.875 
L 2.984375 54.6875 
L 12.5 54.6875 
L 29.59375 11.921875 
L 46.6875 54.6875 
L 56.203125 54.6875 
z
" id="DejaVuSans-79"/>
     </defs>
     <g transform="translate(92.2375 300.747775)rotate(-90)scale(0.1 -0.1)">
      <use xlink:href="#DejaVuSans-79"/>
     </g>
    </g>
   </g>
   <g id="line2d_12">
    <path clip-path="url(#p4248b9ab84)" d="M 150.59609 299.217634 
L 162.58297 256.097848 
L 169.062364 233.613123 
L 174.56985 215.302661 
L 179.429396 199.935718 
L 183.641002 187.32723 
L 187.528639 176.350335 
L 191.092306 166.901265 
L 194.655973 158.085269 
L 197.89567 150.655643 
L 200.811397 144.470486 
L 203.727125 138.781031 
L 206.642852 133.605502 
L 209.23461 129.449917 
L 211.826368 125.724039 
L 214.094156 122.823831 
L 216.361944 120.265475 
L 218.629732 118.053928 
L 220.57355 116.437617 
L 222.517369 115.081566 
L 224.461187 113.987707 
L 226.405005 113.157596 
L 228.348824 112.592417 
L 230.292642 112.292973 
L 232.23646 112.259692 
L 234.180279 112.49262 
L 236.124097 112.991426 
L 238.067915 113.7554 
L 240.011734 114.783453 
L 241.955552 116.074123 
L 243.89937 117.625571 
L 245.843189 119.435587 
L 248.110977 121.870617 
L 250.378765 124.649347 
L 252.646553 127.76639 
L 255.238311 131.735209 
L 257.830068 136.12795 
L 260.421826 140.933495 
L 263.337554 146.817977 
L 266.253281 153.190642 
L 269.492978 160.81906 
L 272.732676 168.994768 
L 276.296343 178.581518 
L 280.183979 189.696413 
L 284.395586 202.439156 
L 288.931162 216.88272 
L 294.114677 234.164057 
L 300.270102 255.525919 
L 308.369345 284.53296 
L 325.86371 347.468752 
L 332.019135 368.660213 
L 337.202651 385.749373 
L 341.738227 399.989871 
L 345.949833 412.516308 
L 349.83747 423.409098 
L 353.401137 432.774436 
L 356.964804 441.500766 
L 360.204501 448.844087 
L 363.120228 454.947961 
L 366.035956 460.552984 
L 368.627714 465.101886 
L 371.219471 469.230911 
L 373.811229 472.929608 
L 376.079017 475.805577 
L 378.346805 478.339317 
L 380.614593 480.525919 
L 382.558412 482.120625 
L 384.50223 483.454896 
L 386.446048 484.52683 
L 388.389867 485.334903 
L 390.333685 485.877963 
L 392.277503 486.155238 
L 394.221322 486.166331 
L 396.16514 485.911229 
L 398.108958 485.390293 
L 400.052777 484.604266 
L 401.996595 483.554267 
L 403.940413 482.24179 
L 405.884232 480.668706 
L 407.82805 478.837253 
L 410.095838 476.377508 
L 412.363626 473.574427 
L 414.631414 470.433442 
L 417.223172 466.437823 
L 419.81493 462.018945 
L 422.406688 457.187993 
L 425.322415 451.27588 
L 428.238143 444.876678 
L 431.47784 437.220161 
L 435.041507 428.168912 
L 438.605174 418.500689 
L 442.49281 407.304311 
L 446.704417 394.482525 
L 451.239993 379.965162 
L 456.423508 362.614572 
L 462.578933 341.192289 
L 471.002146 310.969733 
L 474.241843 299.217634 
L 474.241843 299.217634 
" style="fill:none;stroke:#0000ff;stroke-linecap:square;"/>
   </g>
   <g id="line2d_13">
    <path clip-path="url(#p4248b9ab84)" d="M 150.59609 253.280644 
L 153.511818 250.971199 
L 156.427545 248.353348 
L 159.343273 245.399752 
L 161.935031 242.472 
L 164.850758 238.817705 
L 167.766486 234.763673 
L 170.682213 230.296217 
L 173.597941 225.407716 
L 176.513668 220.097857 
L 179.753365 213.713606 
L 182.993062 206.84309 
L 186.556729 198.771134 
L 190.768336 188.637903 
L 195.951851 175.523292 
L 208.91064 142.395091 
L 212.474307 134.014048 
L 215.714004 126.971192 
L 218.305762 121.830843 
L 220.89752 117.205066 
L 223.165308 113.631013 
L 225.109126 110.951442 
L 227.052945 108.650735 
L 228.672793 107.037788 
L 230.292642 105.712864 
L 231.912491 104.685102 
L 233.532339 103.962258 
L 234.828218 103.607679 
L 236.124097 103.454685 
L 237.419976 103.505103 
L 238.715855 103.760094 
L 240.011734 104.220012 
L 241.307613 104.884725 
L 242.927461 106.002224 
L 244.54731 107.435118 
L 246.167158 109.178591 
L 247.787007 111.226403 
L 249.730825 114.074459 
L 251.674644 117.333364 
L 253.942432 121.629503 
L 256.21022 126.425214 
L 258.801978 132.469017 
L 261.717705 139.912012 
L 264.957402 148.871241 
L 268.521069 159.409492 
L 273.056645 173.582023 
L 279.53604 194.654602 
L 290.87498 231.569775 
L 297.030405 250.787836 
L 302.86186 268.285687 
L 309.665224 287.987031 
L 327.159589 338.240021 
L 332.991044 355.894193 
L 339.146469 375.270497 
L 347.893651 403.686115 
L 355.344955 427.632561 
L 359.556561 440.464253 
L 363.120228 450.622683 
L 366.035956 458.3056 
L 368.627714 464.564385 
L 370.895502 469.54026 
L 373.16329 474.00133 
L 375.107108 477.384174 
L 377.050926 480.335898 
L 378.670775 482.452161 
L 380.290624 484.246041 
L 381.910472 485.709928 
L 383.530321 486.838193 
L 384.8262 487.496621 
L 386.122079 487.936924 
L 387.417958 488.159038 
L 388.713836 488.163696 
L 390.009715 487.952482 
L 391.305594 487.52787 
L 392.601473 486.893159 
L 394.221322 485.810587 
L 395.84117 484.415786 
L 397.461019 482.720257 
L 399.404837 480.307334 
L 401.348656 477.506141 
L 403.616444 473.785602 
L 405.884232 469.625183 
L 408.47599 464.400145 
L 411.391717 458.022637 
L 414.955384 449.682908 
L 420.1389 436.918485 
L 429.210052 414.532795 
L 433.421658 404.786407 
L 436.985325 397.089669 
L 440.225022 390.611881 
L 443.14075 385.24451 
L 446.056477 380.336355 
L 448.972205 375.895658 
L 451.563963 372.339402 
L 454.15572 369.143705 
L 456.747478 366.296546 
L 459.339236 363.782084 
L 461.930994 361.581551 
L 464.522752 359.673933 
L 467.114509 358.036752 
L 469.706267 356.646582 
L 472.621995 355.34772 
L 474.241843 354.734512 
L 474.241843 354.734512 
" style="fill:none;stroke:#ff0000;stroke-dasharray:3.7,1.6;stroke-dashoffset:0;"/>
   </g>
   <g id="patch_3">
    <path d="M 129.6 524.8152 
L 129.6 70.7616 
" style="fill:none;stroke:#000000;stroke-linecap:square;stroke-linejoin:miter;stroke-width:0.8;"/>
   </g>
   <g id="patch_4">
    <path d="M 494.836364 524.8152 
L 494.836364 70.7616 
" style="fill:none;stroke:#000000;stroke-linecap:square;stroke-linejoin:miter;stroke-width:0.8;"/>
   </g>
   <g id="patch_5">
    <path d="M 129.6 524.8152 
L 494.836364 524.8152 
" style="fill:none;stroke:#000000;stroke-linecap:square;stroke-linejoin:miter;stroke-width:0.8;"/>
   </g>
   <g id="patch_6">
    <path d="M 129.6 70.7616 
L 494.836364 70.7616 
" style="fill:none;stroke:#000000;stroke-linecap:square;stroke-linejoin:miter;stroke-width:0.8;"/>
   </g>
   <g id="text_14">
    <!-- Fit 1 -->
    <defs>
     <path d="M 9.8125 72.90625 
L 51.703125 72.90625 
L 51.703125 64.59375 
L 19.671875 64.59375 
L 19.671875 43.109375 
L 48.578125 43.109375 
L 48.578125 34.8125 
L 19.671875 34.8125 
L 19.671875 0 
L 9.8125 0 
z
" id="DejaVuSans-46"/>
     <path d="M 9.421875 54.6875 
L 18.40625 54.6875 
L 18.40625 0 
L 9.421875 0 
z
M 9.421875 75.984375 
L 18.40625 75.984375 
L 18.40625 64.59375 
L 9.421875 64.59375 
z
" id="DejaVuSans-69"/>
     <path d="M 18.3125 70.21875 
L 18.3125 54.6875 
L 36.8125 54.6875 
L 36.8125 47.703125 
L 18.3125 47.703125 
L 18.3125 18.015625 
Q 18.3125 11.328125 20.140625 9.421875 
Q 21.96875 7.515625 27.59375 7.515625 
L 36.8125 7.515625 
L 36.8125 0 
L 27.59375 0 
Q 17.1875 0 13.234375 3.875 
Q 9.28125 7.765625 9.28125 18.015625 
L 9.28125 47.703125 
L 2.6875 47.703125 
L 2.6875 54.6875 
L 9.28125 54.6875 
L 9.28125 70.21875 
z
" id="DejaVuSans-74"/>
     <path id="DejaVuSans-20"/>
    </defs>
    <g transform="translate(299.030369 64.7616)scale(0.12 -0.12)">
     <use xlink:href="#DejaVuSans-46"/>
     <use x="57.410156" xlink:href="#DejaVuSans-69"/>
     <use x="85.193359" xlink:href="#DejaVuSans-74"/>
     <use x="124.402344" xlink:href="#DejaVuSans-20"/>
     <use x="156.189453" xlink:href="#DejaVuSans-31"/>
    </g>
   </g>
  </g>
  <g id="axes_2">
   <g id="patch_7">
    <path d="M 567.883636 524.8152 
L 933.12 524.8152 
L 933.12 70.7616 
L 567.883636 70.7616 
z
" style="fill:#ffffff;"/>
   </g>
   <g id="matplotlib.axis_3">
    <g id="xtick_7">
     <g id="line2d_14">
      <g>
       <use style="stroke:#000000;stroke-width:0.8;" x="584.485289" xlink:href="#m8af7282777" y="524.8152"/>
      </g>
     </g>
     <g id="text_15">
      <!-- 0.0 -->
      <g transform="translate(576.533727 539.413637)scale(0.1 -0.1)">
       <use xlink:href="#DejaVuSans-30"/>
       <use x="63.623047" xlink:href="#DejaVuSans-2e"/>
       <use x="95.410156" xlink:href="#DejaVuSans-30"/>
      </g>
     </g>
    </g>
    <g id="xtick_8">
     <g id="line2d_15">
      <g>
       <use style="stroke:#000000;stroke-width:0.8;" x="650.891901" xlink:href="#m8af7282777" y="524.8152"/>
      </g>
     </g>
     <g id="text_16">
      <!-- 0.2 -->
      <g transform="translate(642.940338 539.413637)scale(0.1 -0.1)">
       <use xlink:href="#DejaVuSans-30"/>
       <use x="63.623047" xlink:href="#DejaVuSans-2e"/>
       <use x="95.410156" xlink:href="#DejaVuSans-32"/>
      </g>
     </g>
    </g>
    <g id="xtick_9">
     <g id="line2d_16">
      <g>
       <use style="stroke:#000000;stroke-width:0.8;" x="717.298512" xlink:href="#m8af7282777" y="524.8152"/>
      </g>
     </g>
     <g id="text_17">
      <!-- 0.4 -->
      <g transform="translate(709.34695 539.413637)scale(0.1 -0.1)">
       <use xlink:href="#DejaVuSans-30"/>
       <use x="63.623047" xlink:href="#DejaVuSans-2e"/>
       <use x="95.410156" xlink:href="#DejaVuSans-34"/>
      </g>
     </g>
    </g>
    <g id="xtick_10">
     <g id="line2d_17">
      <g>
       <use style="stroke:#000000;stroke-width:0.8;" x="783.705124" xlink:href="#m8af7282777" y="524.8152"/>
      </g>
     </g>
     <g id="text_18">
      <!-- 0.6 -->
      <g transform="translate(775.753561 539.413637)scale(0.1 -0.1)">
       <use xlink:href="#DejaVuSans-30"/>
       <use x="63.623047" xlink:href="#DejaVuSans-2e"/>
       <use x="95.410156" xlink:href="#DejaVuSans-36"/>
      </g>
     </g>
    </g>
    <g id="xtick_11">
     <g id="line2d_18">
      <g>
       <use style="stroke:#000000;stroke-width:0.8;" x="850.111736" xlink:href="#m8af7282777" y="524.8152"/>
      </g>
     </g>
     <g id="text_19">
      <!-- 0.8 -->
      <g transform="translate(842.160173 539.413637)scale(0.1 -0.1)">
       <use xlink:href="#DejaVuSans-30"/>
       <use x="63.623047" xlink:href="#DejaVuSans-2e"/>
       <use x="95.410156" xlink:href="#DejaVuSans-38"/>
      </g>
     </g>
    </g>
    <g id="xtick_12">
     <g id="line2d_19">
      <g>
       <use style="stroke:#000000;stroke-width:0.8;" x="916.518347" xlink:href="#m8af7282777" y="524.8152"/>
      </g>
     </g>
     <g id="text_20">
      <!-- 1.0 -->
      <g transform="translate(908.566785 539.413637)scale(0.1 -0.1)">
       <use xlink:href="#DejaVuSans-31"/>
       <use x="63.623047" xlink:href="#DejaVuSans-2e"/>
       <use x="95.410156" xlink:href="#DejaVuSans-30"/>
      </g>
     </g>
    </g>
    <g id="text_21">
     <!-- x -->
     <g transform="translate(747.542443 553.091762)scale(0.1 -0.1)">
      <use xlink:href="#DejaVuSans-78"/>
     </g>
    </g>
   </g>
   <g id="matplotlib.axis_4">
    <g id="ytick_6">
     <g id="line2d_20">
      <g>
       <use style="stroke:#000000;stroke-width:0.8;" x="567.883636" xlink:href="#maab97eb05a" y="504.1764"/>
      </g>
     </g>
     <g id="text_22">
      <!-- 0.0 -->
      <g transform="translate(544.980511 507.975619)scale(0.1 -0.1)">
       <use xlink:href="#DejaVuSans-30"/>
       <use x="63.623047" xlink:href="#DejaVuSans-2e"/>
       <use x="95.410156" xlink:href="#DejaVuSans-30"/>
      </g>
     </g>
    </g>
    <g id="ytick_7">
     <g id="line2d_21">
      <g>
       <use style="stroke:#000000;stroke-width:0.8;" x="567.883636" xlink:href="#maab97eb05a" y="421.621175"/>
      </g>
     </g>
     <g id="text_23">
      <!-- 0.2 -->
      <g transform="translate(544.980511 425.420394)scale(0.1 -0.1)">
       <use xlink:href="#DejaVuSans-30"/>
       <use x="63.623047" xlink:href="#DejaVuSans-2e"/>
       <use x="95.410156" xlink:href="#DejaVuSans-32"/>
      </g>
     </g>
    </g>
    <g id="ytick_8">
     <g id="line2d_22">
      <g>
       <use style="stroke:#000000;stroke-width:0.8;" x="567.883636" xlink:href="#maab97eb05a" y="339.06595"/>
      </g>
     </g>
     <g id="text_24">
      <!-- 0.4 -->
      <g transform="translate(544.980511 342.865169)scale(0.1 -0.1)">
       <use xlink:href="#DejaVuSans-30"/>
       <use x="63.623047" xlink:href="#DejaVuSans-2e"/>
       <use x="95.410156" xlink:href="#DejaVuSans-34"/>
      </g>
     </g>
    </g>
    <g id="ytick_9">
     <g id="line2d_23">
      <g>
       <use style="stroke:#000000;stroke-width:0.8;" x="567.883636" xlink:href="#maab97eb05a" y="256.510725"/>
      </g>
     </g>
     <g id="text_25">
      <!-- 0.6 -->
      <g transform="translate(544.980511 260.309944)scale(0.1 -0.1)">
       <use xlink:href="#DejaVuSans-30"/>
       <use x="63.623047" xlink:href="#DejaVuSans-2e"/>
       <use x="95.410156" xlink:href="#DejaVuSans-36"/>
      </g>
     </g>
    </g>
    <g id="ytick_10">
     <g id="line2d_24">
      <g>
       <use style="stroke:#000000;stroke-width:0.8;" x="567.883636" xlink:href="#maab97eb05a" y="173.9555"/>
      </g>
     </g>
     <g id="text_26">
      <!-- 0.8 -->
      <g transform="translate(544.980511 177.754719)scale(0.1 -0.1)">
       <use xlink:href="#DejaVuSans-30"/>
       <use x="63.623047" xlink:href="#DejaVuSans-2e"/>
       <use x="95.410156" xlink:href="#DejaVuSans-38"/>
      </g>
     </g>
    </g>
    <g id="ytick_11">
     <g id="line2d_25">
      <g>
       <use style="stroke:#000000;stroke-width:0.8;" x="567.883636" xlink:href="#maab97eb05a" y="91.400275"/>
      </g>
     </g>
     <g id="text_27">
      <!-- 1.0 -->
      <g transform="translate(544.980511 95.199494)scale(0.1 -0.1)">
       <use xlink:href="#DejaVuSans-31"/>
       <use x="63.623047" xlink:href="#DejaVuSans-2e"/>
       <use x="95.410156" xlink:href="#DejaVuSans-30"/>
      </g>
     </g>
    </g>
    <g id="text_28">
     <!-- y -->
     <g transform="translate(538.900824 300.747775)rotate(-90)scale(0.1 -0.1)">
      <use xlink:href="#DejaVuSans-79"/>
     </g>
    </g>
   </g>
   <g id="line2d_26">
    <path clip-path="url(#p85ec636784)" d="M 584.485289 94.675691 
L 588.141309 93.530175 
L 591.797329 92.628756 
L 595.453348 91.973053 
L 598.777002 91.591185 
L 602.100657 91.413936 
L 605.424311 91.441572 
L 608.747965 91.67405 
L 612.071619 92.111024 
L 615.727639 92.827104 
L 619.383659 93.788543 
L 623.039678 94.993615 
L 626.695698 96.44016 
L 630.351718 98.125588 
L 634.007737 100.046892 
L 637.996122 102.407849 
L 641.984507 105.040462 
L 645.972893 107.9392 
L 650.293643 111.372773 
L 654.614394 115.103173 
L 658.935144 119.121353 
L 663.58826 123.759349 
L 668.241376 128.707016 
L 673.226857 134.336278 
L 678.544704 140.695636 
L 683.862551 147.399381 
L 689.512763 154.873465 
L 695.495341 163.150349 
L 702.142649 172.74293 
L 709.122323 183.211605 
L 716.766728 195.075753 
L 725.740594 209.434237 
L 736.376288 226.89308 
L 752.662193 254.119738 
L 772.936484 287.940903 
L 784.236909 306.35741 
L 793.875506 321.6505 
L 802.517007 334.955411 
L 810.493777 346.843783 
L 818.138182 357.845493 
L 825.450221 367.983367 
L 832.429895 377.289275 
L 839.409569 386.217865 
L 846.056877 394.360271 
L 852.704186 402.14345 
L 859.019129 409.200767 
L 865.334072 415.928255 
L 871.649015 422.326036 
L 877.963958 428.395932 
L 883.946536 433.846955 
L 889.929113 439.010783 
L 895.911691 443.892513 
L 901.894268 448.498172 
L 907.876846 452.834614 
L 913.859424 456.909409 
L 916.518347 458.638565 
L 916.518347 458.638565 
" style="fill:none;stroke:#1f77b4;stroke-linecap:square;stroke-width:1.5;"/>
   </g>
   <g id="line2d_27">
    <path clip-path="url(#p85ec636784)" d="M 584.485289 504.1764 
L 916.518347 504.163901 
L 916.518347 504.163901 
" style="fill:none;stroke:#ff7f0e;stroke-linecap:square;stroke-width:1.5;"/>
   </g>
   <g id="line2d_28">
    <path clip-path="url(#p85ec636784)" d="M 584.485289 474.397779 
L 586.811847 470.154292 
L 589.138405 465.440499 
L 591.464963 460.226092 
L 593.791521 454.482165 
L 596.118079 448.181831 
L 598.444637 441.300875 
L 601.10356 432.699403 
L 603.762484 423.287984 
L 606.421407 413.050525 
L 609.080331 401.980742 
L 612.071619 388.538911 
L 615.062908 374.076083 
L 618.386562 356.867693 
L 622.042582 336.671347 
L 626.030967 313.338857 
L 631.016449 282.743355 
L 645.972893 189.737332 
L 649.628912 168.972491 
L 652.620201 153.206958 
L 655.279124 140.324795 
L 657.605682 130.056521 
L 659.93224 120.828496 
L 661.926433 113.815387 
L 663.920625 107.684184 
L 665.582453 103.281371 
L 667.24428 99.545321 
L 668.573741 97.049749 
L 669.903203 95.001799 
L 671.232665 93.408366 
L 672.229761 92.514861 
L 673.226857 91.881779 
L 674.223954 91.510326 
L 675.22105 91.401211 
L 676.218146 91.554642 
L 677.215242 91.970326 
L 678.212339 92.647471 
L 679.209435 93.584786 
L 680.206531 94.780489 
L 681.535993 96.7727 
L 682.865455 99.213465 
L 684.194916 102.094596 
L 685.856743 106.300481 
L 687.51857 111.157488 
L 689.180398 116.640623 
L 691.17459 124.007307 
L 693.168783 132.181749 
L 695.495341 142.661258 
L 698.154264 155.757628 
L 701.145553 171.727337 
L 704.469207 190.726339 
L 708.789958 216.863394 
L 715.769631 260.780318 
L 723.081671 306.333098 
L 727.402421 331.925929 
L 731.390806 354.20011 
L 734.714461 371.580216 
L 738.038115 387.771923 
L 741.029404 401.270606 
L 744.020692 413.723297 
L 746.679616 423.908166 
L 749.338539 433.267736 
L 751.997463 441.818676 
L 754.656386 449.585965 
L 757.315309 456.601465 
L 759.641867 462.15258 
L 761.968425 467.184327 
L 764.294983 471.726182 
L 766.621541 475.808813 
L 768.948099 479.463541 
L 771.274657 482.721851 
L 773.601215 485.614962 
L 775.927773 488.173464 
L 778.254331 490.427007 
L 780.580889 492.404049 
L 783.239812 494.359609 
L 785.898736 496.02727 
L 788.557659 497.442165 
L 791.548948 498.771793 
L 794.540237 499.863659 
L 797.863891 500.842624 
L 801.519911 501.685295 
L 805.508296 502.381222 
L 810.161412 502.967134 
L 815.811624 503.441753 
L 822.791298 503.790513 
L 832.429895 504.025717 
L 847.718704 504.146387 
L 890.92621 504.17626 
L 916.518347 504.176397 
L 916.518347 504.176397 
" style="fill:none;stroke:#2ca02c;stroke-linecap:square;stroke-width:1.5;"/>
   </g>
   <g id="line2d_29">
    <path clip-path="url(#p85ec636784)" d="M 584.485289 504.1764 
L 679.5418 504.066404 
L 690.177494 503.828055 
L 697.157168 503.468401 
L 702.475015 502.991166 
L 707.12813 502.348884 
L 711.116516 501.562424 
L 714.44017 500.686768 
L 717.431459 499.683182 
L 720.422747 498.43062 
L 723.081671 497.068068 
L 725.740594 495.430053 
L 728.067152 493.736586 
L 730.39371 491.76696 
L 732.720268 489.486968 
L 735.046826 486.860254 
L 737.373384 483.848576 
L 739.699942 480.412159 
L 742.0265 476.510143 
L 744.353058 472.101133 
L 746.679616 467.143855 
L 749.006174 461.597911 
L 751.332732 455.424636 
L 753.65929 448.588043 
L 755.985848 441.055854 
L 758.312406 432.800588 
L 760.638964 423.800696 
L 763.297887 412.58514 
L 765.95681 400.370116 
L 768.615734 387.163531 
L 771.607023 371.154127 
L 774.930677 352.016442 
L 778.586696 329.491405 
L 782.575082 303.464397 
L 787.892928 267.181886 
L 797.531526 201.150265 
L 801.187545 177.695994 
L 804.178834 159.803322 
L 806.837757 145.155707 
L 809.164315 133.484712 
L 811.158508 124.438846 
L 813.1527 116.359298 
L 814.814528 110.415526 
L 816.476355 105.228272 
L 818.138182 100.82964 
L 819.467644 97.897152 
L 820.797105 95.498833 
L 821.794201 94.056549 
L 822.791298 92.923512 
L 823.788394 92.102311 
L 824.78549 91.594825 
L 825.782587 91.402214 
L 826.779683 91.52492 
L 827.776779 91.962663 
L 828.773875 92.714439 
L 829.770972 93.778529 
L 830.768068 95.152502 
L 832.09753 97.460991 
L 833.426991 100.305407 
L 834.756453 103.674307 
L 836.41828 108.60226 
L 838.080107 114.297921 
L 839.741934 120.726257 
L 841.736127 129.352057 
L 844.062685 140.577744 
L 846.389243 152.931395 
L 849.048166 168.25219 
L 852.039455 186.758913 
L 856.02784 212.9898 
L 862.010418 254.126033 
L 869.654822 306.421861 
L 873.975573 334.39003 
L 877.631593 356.60551 
L 880.955247 375.421472 
L 883.946536 391.119158 
L 886.937824 405.583304 
L 889.596748 417.381685 
L 892.255671 428.182204 
L 894.914595 437.999268 
L 897.241153 445.803821 
L 899.567711 452.901688 
L 901.894268 459.323453 
L 904.220826 465.103815 
L 906.547384 470.280536 
L 908.873942 474.893459 
L 911.2005 478.983621 
L 913.527058 482.592453 
L 915.853616 485.761088 
L 916.518347 486.591223 
L 916.518347 486.591223 
" style="fill:none;stroke:#d62728;stroke-linecap:square;stroke-width:1.5;"/>
   </g>
   <g id="line2d_30">
    <path clip-path="url(#p85ec636784)" d="M 584.485289 97.926968 
L 588.473674 99.838886 
L 592.462059 101.987489 
L 596.78281 104.577732 
L 601.10356 107.43574 
L 605.424311 110.555515 
L 610.077427 114.200541 
L 614.730543 118.132826 
L 619.716024 122.65407 
L 624.701505 127.481971 
L 630.019352 132.955041 
L 635.337199 138.745537 
L 640.987411 145.226248 
L 646.969989 152.433144 
L 653.284932 160.39634 
L 659.93224 169.138552 
L 667.24428 179.135899 
L 675.22105 190.437481 
L 684.194916 203.561764 
L 694.498244 219.0439 
L 707.792861 239.447584 
L 743.688327 294.75602 
L 754.988751 311.632241 
L 764.627349 325.64062 
L 773.601215 338.297851 
L 781.910351 349.64256 
L 789.887121 360.162414 
L 797.531526 369.879478 
L 804.843565 378.823368 
L 812.155604 387.411528 
L 819.135278 395.268585 
L 826.114952 402.786741 
L 832.76226 409.628375 
L 839.409569 416.157781 
L 846.056877 422.375152 
L 852.704186 428.282197 
L 859.351494 433.882025 
L 865.998803 439.179023 
L 872.646111 444.17873 
L 879.29342 448.887719 
L 885.940728 453.313471 
L 892.588037 457.464257 
L 899.235345 461.349019 
L 905.882654 464.977261 
L 912.529962 468.358935 
L 916.518347 470.273862 
L 916.518347 470.273862 
" style="fill:none;stroke:#9467bd;stroke-linecap:square;stroke-width:1.5;"/>
   </g>
   <g id="patch_8">
    <path d="M 567.883636 524.8152 
L 567.883636 70.7616 
" style="fill:none;stroke:#000000;stroke-linecap:square;stroke-linejoin:miter;stroke-width:0.8;"/>
   </g>
   <g id="patch_9">
    <path d="M 933.12 524.8152 
L 933.12 70.7616 
" style="fill:none;stroke:#000000;stroke-linecap:square;stroke-linejoin:miter;stroke-width:0.8;"/>
   </g>
   <g id="patch_10">
    <path d="M 567.883636 524.8152 
L 933.12 524.8152 
" style="fill:none;stroke:#000000;stroke-linecap:square;stroke-linejoin:miter;stroke-width:0.8;"/>
   </g>
   <g id="patch_11">
    <path d="M 567.883636 70.7616 
L 933.12 70.7616 
" style="fill:none;stroke:#000000;stroke-linecap:square;stroke-linejoin:miter;stroke-width:0.8;"/>
   </g>
   <g id="text_29">
    <!-- Bases for fit 1 -->
    <defs>
     <path d="M 19.671875 34.8125 
L 19.671875 8.109375 
L 35.5 8.109375 
Q 43.453125 8.109375 47.28125 11.40625 
Q 51.125 14.703125 51.125 21.484375 
Q 51.125 28.328125 47.28125 31.5625 
Q 43.453125 34.8125 35.5 34.8125 
z
M 19.671875 64.796875 
L 19.671875 42.828125 
L 34.28125 42.828125 
Q 41.5 42.828125 45.03125 45.53125 
Q 48.578125 48.25 48.578125 53.8125 
Q 48.578125 59.328125 45.03125 62.0625 
Q 41.5 64.796875 34.28125 64.796875 
z
M 9.8125 72.90625 
L 35.015625 72.90625 
Q 46.296875 72.90625 52.390625 68.21875 
Q 58.5 63.53125 58.5 54.890625 
Q 58.5 48.1875 55.375 44.234375 
Q 52.25 40.28125 46.1875 39.3125 
Q 53.46875 37.75 57.5 32.78125 
Q 61.53125 27.828125 61.53125 20.40625 
Q 61.53125 10.640625 54.890625 5.3125 
Q 48.25 0 35.984375 0 
L 9.8125 0 
z
" id="DejaVuSans-42"/>
     <path d="M 34.28125 27.484375 
Q 23.390625 27.484375 19.1875 25 
Q 14.984375 22.515625 14.984375 16.5 
Q 14.984375 11.71875 18.140625 8.90625 
Q 21.296875 6.109375 26.703125 6.109375 
Q 34.1875 6.109375 38.703125 11.40625 
Q 43.21875 16.703125 43.21875 25.484375 
L 43.21875 27.484375 
z
M 52.203125 31.203125 
L 52.203125 0 
L 43.21875 0 
L 43.21875 8.296875 
Q 40.140625 3.328125 35.546875 0.953125 
Q 30.953125 -1.421875 24.3125 -1.421875 
Q 15.921875 -1.421875 10.953125 3.296875 
Q 6 8.015625 6 15.921875 
Q 6 25.140625 12.171875 29.828125 
Q 18.359375 34.515625 30.609375 34.515625 
L 43.21875 34.515625 
L 43.21875 35.40625 
Q 43.21875 41.609375 39.140625 45 
Q 35.0625 48.390625 27.6875 48.390625 
Q 23 48.390625 18.546875 47.265625 
Q 14.109375 46.140625 10.015625 43.890625 
L 10.015625 52.203125 
Q 14.9375 54.109375 19.578125 55.046875 
Q 24.21875 56 28.609375 56 
Q 40.484375 56 46.34375 49.84375 
Q 52.203125 43.703125 52.203125 31.203125 
z
" id="DejaVuSans-61"/>
     <path d="M 44.28125 53.078125 
L 44.28125 44.578125 
Q 40.484375 46.53125 36.375 47.5 
Q 32.28125 48.484375 27.875 48.484375 
Q 21.1875 48.484375 17.84375 46.4375 
Q 14.5 44.390625 14.5 40.28125 
Q 14.5 37.15625 16.890625 35.375 
Q 19.28125 33.59375 26.515625 31.984375 
L 29.59375 31.296875 
Q 39.15625 29.25 43.1875 25.515625 
Q 47.21875 21.78125 47.21875 15.09375 
Q 47.21875 7.46875 41.1875 3.015625 
Q 35.15625 -1.421875 24.609375 -1.421875 
Q 20.21875 -1.421875 15.453125 -0.5625 
Q 10.6875 0.296875 5.421875 2 
L 5.421875 11.28125 
Q 10.40625 8.6875 15.234375 7.390625 
Q 20.0625 6.109375 24.8125 6.109375 
Q 31.15625 6.109375 34.5625 8.28125 
Q 37.984375 10.453125 37.984375 14.40625 
Q 37.984375 18.0625 35.515625 20.015625 
Q 33.0625 21.96875 24.703125 23.78125 
L 21.578125 24.515625 
Q 13.234375 26.265625 9.515625 29.90625 
Q 5.8125 33.546875 5.8125 39.890625 
Q 5.8125 47.609375 11.28125 51.796875 
Q 16.75 56 26.8125 56 
Q 31.78125 56 36.171875 55.265625 
Q 40.578125 54.546875 44.28125 53.078125 
z
" id="DejaVuSans-73"/>
     <path d="M 56.203125 29.59375 
L 56.203125 25.203125 
L 14.890625 25.203125 
Q 15.484375 15.921875 20.484375 11.0625 
Q 25.484375 6.203125 34.421875 6.203125 
Q 39.59375 6.203125 44.453125 7.46875 
Q 49.3125 8.734375 54.109375 11.28125 
L 54.109375 2.78125 
Q 49.265625 0.734375 44.1875 -0.34375 
Q 39.109375 -1.421875 33.890625 -1.421875 
Q 20.796875 -1.421875 13.15625 6.1875 
Q 5.515625 13.8125 5.515625 26.8125 
Q 5.515625 40.234375 12.765625 48.109375 
Q 20.015625 56 32.328125 56 
Q 43.359375 56 49.78125 48.890625 
Q 56.203125 41.796875 56.203125 29.59375 
z
M 47.21875 32.234375 
Q 47.125 39.59375 43.09375 43.984375 
Q 39.0625 48.390625 32.421875 48.390625 
Q 24.90625 48.390625 20.390625 44.140625 
Q 15.875 39.890625 15.1875 32.171875 
z
" id="DejaVuSans-65"/>
     <path d="M 37.109375 75.984375 
L 37.109375 68.5 
L 28.515625 68.5 
Q 23.6875 68.5 21.796875 66.546875 
Q 19.921875 64.59375 19.921875 59.515625 
L 19.921875 54.6875 
L 34.71875 54.6875 
L 34.71875 47.703125 
L 19.921875 47.703125 
L 19.921875 0 
L 10.890625 0 
L 10.890625 47.703125 
L 2.296875 47.703125 
L 2.296875 54.6875 
L 10.890625 54.6875 
L 10.890625 58.5 
Q 10.890625 67.625 15.140625 71.796875 
Q 19.390625 75.984375 28.609375 75.984375 
z
" id="DejaVuSans-66"/>
     <path d="M 30.609375 48.390625 
Q 23.390625 48.390625 19.1875 42.75 
Q 14.984375 37.109375 14.984375 27.296875 
Q 14.984375 17.484375 19.15625 11.84375 
Q 23.34375 6.203125 30.609375 6.203125 
Q 37.796875 6.203125 41.984375 11.859375 
Q 46.1875 17.53125 46.1875 27.296875 
Q 46.1875 37.015625 41.984375 42.703125 
Q 37.796875 48.390625 30.609375 48.390625 
z
M 30.609375 56 
Q 42.328125 56 49.015625 48.375 
Q 55.71875 40.765625 55.71875 27.296875 
Q 55.71875 13.875 49.015625 6.21875 
Q 42.328125 -1.421875 30.609375 -1.421875 
Q 18.84375 -1.421875 12.171875 6.21875 
Q 5.515625 13.875 5.515625 27.296875 
Q 5.515625 40.765625 12.171875 48.375 
Q 18.84375 56 30.609375 56 
z
" id="DejaVuSans-6f"/>
     <path d="M 41.109375 46.296875 
Q 39.59375 47.171875 37.8125 47.578125 
Q 36.03125 48 33.890625 48 
Q 26.265625 48 22.1875 43.046875 
Q 18.109375 38.09375 18.109375 28.8125 
L 18.109375 0 
L 9.078125 0 
L 9.078125 54.6875 
L 18.109375 54.6875 
L 18.109375 46.1875 
Q 20.953125 51.171875 25.484375 53.578125 
Q 30.03125 56 36.53125 56 
Q 37.453125 56 38.578125 55.875 
Q 39.703125 55.765625 41.0625 55.515625 
z
" id="DejaVuSans-72"/>
    </defs>
    <g transform="translate(708.845881 64.7616)scale(0.12 -0.12)">
     <use xlink:href="#DejaVuSans-42"/>
     <use x="68.603516" xlink:href="#DejaVuSans-61"/>
     <use x="129.882812" xlink:href="#DejaVuSans-73"/>
     <use x="181.982422" xlink:href="#DejaVuSans-65"/>
     <use x="243.505859" xlink:href="#DejaVuSans-73"/>
     <use x="295.605469" xlink:href="#DejaVuSans-20"/>
     <use x="327.392578" xlink:href="#DejaVuSans-66"/>
     <use x="362.597656" xlink:href="#DejaVuSans-6f"/>
     <use x="423.779297" xlink:href="#DejaVuSans-72"/>
     <use x="464.892578" xlink:href="#DejaVuSans-20"/>
     <use x="496.679688" xlink:href="#DejaVuSans-66"/>
     <use x="531.884766" xlink:href="#DejaVuSans-69"/>
     <use x="559.667969" xlink:href="#DejaVuSans-74"/>
     <use x="598.876953" xlink:href="#DejaVuSans-20"/>
     <use x="630.664062" xlink:href="#DejaVuSans-31"/>
    </g>
   </g>
  </g>
 </g>
 <defs>
  <clipPath id="p4248b9ab84">
   <rect height="454.0536" width="365.236364" x="129.6" y="70.7616"/>
  </clipPath>
  <clipPath id="p85ec636784">
   <rect height="454.0536" width="365.236364" x="567.883636" y="70.7616"/>
  </clipPath>
 </defs>
</svg>
